<svg width="26" height="27" viewBox="0 0 90 91" fill="none" xmlns="http://www.w3.org/2000/svg">
<path d="M0 28.0637C0 12.5998 12.536 0.0637512 28 0.0637512H70C81.0457 0.0637512 90 9.01806 90 20.0638V62.0638C90 77.5277 77.464 90.0638 62 90.0638H20C8.9543 90.0638 0 81.1094 0 70.0638V28.0637Z" fill="#00BE28"/>
<path d="M14.116 61.3527V22.3373C12.6546 23.3366 11.46 24.6706 10.6343 26.2251C9.80869 27.7797 9.3766 29.5086 9.375 31.264V64.1384C9.37709 68.5272 11.1435 72.7356 14.2861 75.839C17.4287 78.9423 21.6903 80.6867 26.1346 80.6887H58.5791C60.5402 80.6846 62.4648 80.1658 64.156 79.1855C65.8471 78.2051 67.244 76.7984 68.2035 75.1095H28.0231C24.3325 75.1033 20.7953 73.6512 18.1879 71.072C15.5805 68.4927 14.116 64.9972 14.116 61.3527Z" fill="white"/>
<path d="M79.7558 16.6332C78.3948 13.8537 76.1227 11.6099 73.308 10.2659C71.9161 9.71527 70.4299 9.43445 68.9305 9.4388H28.0231C26.5227 9.43941 25.0364 9.72553 23.6456 10.2815C20.8309 11.6255 18.5587 13.8693 17.1977 16.6489C16.6339 18.0248 16.3442 19.4952 16.3444 20.9796V61.3683C16.3485 64.4265 17.5801 67.3584 19.7691 69.5216C21.9582 71.6847 24.9263 72.9029 28.0231 72.9091H69.1675C70.5925 72.8798 72.0005 72.597 73.3238 72.0741C76.1348 70.7277 78.4037 68.4844 79.7637 65.7068C80.3332 64.3323 80.6257 62.8613 80.625 61.3761V20.964C80.6224 19.4784 80.3272 18.0075 79.7558 16.6332ZM75.1807 59.8077C75.1802 61.4616 74.6427 63.0718 73.6472 64.4018C72.6516 65.7318 71.2505 66.7116 69.6495 67.1972C68.9136 67.4141 68.1497 67.5245 67.3817 67.525H29.5956C27.5229 67.5229 25.5355 66.7094 24.0692 65.2628C22.6028 63.8162 21.777 61.8545 21.7729 59.8077V49.89H40.8477V59.4175L67.6425 41.1583L40.8477 22.8991V32.4267H21.7571V22.509C21.7608 21.7826 21.8671 21.0604 22.0731 20.3631C22.5463 18.7579 23.5336 17.3474 24.8869 16.343C26.2403 15.3385 27.8868 14.7942 29.5798 14.7917H67.3422C69.4149 14.7938 71.4022 15.6073 72.8686 17.0538C74.335 18.5004 75.1607 20.4621 75.1649 22.509L75.1807 59.8077Z" fill="white"/>
</svg>
